<?xml version="1.0" standalone="no"?>
<svg xmlns:xlink="http://www.w3.org/1999/xlink" id="wave" style="transform:rotate(0deg); transition: 0.3s" viewBox="0 0 1440 490" version="1.1" xmlns="http://www.w3.org/2000/svg"><defs><linearGradient id="sw-gradient-0" x1="0" x2="0" y1="1" y2="0"><stop stop-color="rgba(243, 106, 62, 1)" offset="0%"/><stop stop-color="rgba(255, 179, 11, 1)" offset="100%"/></linearGradient></defs><path style="transform:translate(0, 0px); opacity:1" fill="url(#sw-gradient-0)" d="M0,196L120,212.3C240,229,480,261,720,236.8C960,212,1200,131,1440,130.7C1680,131,1920,212,2160,245C2400,278,2640,261,2880,269.5C3120,278,3360,310,3600,343C3840,376,4080,408,4320,424.7C4560,441,4800,441,5040,383.8C5280,327,5520,212,5760,171.5C6000,131,6240,163,6480,212.3C6720,261,6960,327,7200,302.2C7440,278,7680,163,7920,122.5C8160,82,8400,114,8640,130.7C8880,147,9120,147,9360,163.3C9600,180,9840,212,10080,228.7C10320,245,10560,245,10800,253.2C11040,261,11280,278,11520,294C11760,310,12000,327,12240,326.7C12480,327,12720,310,12960,318.5C13200,327,13440,359,13680,334.8C13920,310,14160,229,14400,196C14640,163,14880,180,15120,196C15360,212,15600,229,15840,269.5C16080,310,16320,376,16560,343C16800,310,17040,180,17160,114.3L17280,49L17280,490L17160,490C17040,490,16800,490,16560,490C16320,490,16080,490,15840,490C15600,490,15360,490,15120,490C14880,490,14640,490,14400,490C14160,490,13920,490,13680,490C13440,490,13200,490,12960,490C12720,490,12480,490,12240,490C12000,490,11760,490,11520,490C11280,490,11040,490,10800,490C10560,490,10320,490,10080,490C9840,490,9600,490,9360,490C9120,490,8880,490,8640,490C8400,490,8160,490,7920,490C7680,490,7440,490,7200,490C6960,490,6720,490,6480,490C6240,490,6000,490,5760,490C5520,490,5280,490,5040,490C4800,490,4560,490,4320,490C4080,490,3840,490,3600,490C3360,490,3120,490,2880,490C2640,490,2400,490,2160,490C1920,490,1680,490,1440,490C1200,490,960,490,720,490C480,490,240,490,120,490L0,490Z"/></svg>